<svg width="360" height="128" xmlns="http://www.w3.org/2000/svg" xmlns:undefined="http://www.inkscape.org/namespaces/inkscape" version="1.1">
    <defs id="defs1131">
        <rect x="-36.93969" y="16.20162" width="434.20342" height="103.0423" id="rect8686" />
    </defs>
    <g transform="matrix(1.0467204,0,0,1.1040541,-0.14922066,-2.2793965)" fill="none" fill-rule="evenodd" id="g1125">
        <g id="svg_2" transform="matrix(0.14366844,0,0,0.15566738,0.46431917,18.481188)">
            <path id="path19" fill="#288584" d="m18.99996,22.00002l138.1147,103.52594l179.99937,-1.1974c0,0 40.20348,2.80234 40.20348,47.36823c0,44.56595 -34.10259,47.77268 -34.10259,47.77268l-74.3131,1.79771l101.84018,95.9939c0,0 121.21415,-24.79461 121.21415,-145.18828c0,-120.39366 -138.06829,-148.03174 -138.06829,-148.03174l-334.88789,-2.04103l-0.00001,-0.00001z" />
            <g transform="matrix(2.38521,0,0,2.22707,59.6237,361.77)" id="g1496">
                <g transform="matrix(0.729101,0,0,0.704026,155.673,-0.424243)" id="Layer_1">
                    <title id="title2141">ProduApps</title>
                    <path fill="#2db696" d="m-151.87366,-16.0992l-85,-105l80,0l90,105l-90,100l-80,0l85,-100z" id="svg_1" strokeWidth="0" />
                </g>
            </g>
        </g>
    </g>
    <g>
        <g font-size="61.3333px" font-family="Nunito" fill="#1f2433" id="text1985" aria-label="roduApps">
            <path id="path25379" d="m79.99031,92.23454q-2.26933,0 -3.31199,-1.34933q-0.98134,-1.41067 -0.552,-3.864l3.37333,-21.52799q0.67466,-4.416 5.15199,-4.416q2.208,0 3.18934,1.34934q0.98133,1.34933 0.61333,3.80266l-0.12267,0.49067q1.472,-2.63734 3.92533,-4.10933q2.45334,-1.53334 5.58133,-1.656q1.84,-0.06133 2.576,0.67466q0.736,0.736 0.736,2.33067q0,2.51466 -1.104,3.68q-1.104,1.104 -3.49599,1.34933l-2.024,0.184q-3.68,0.368 -5.27467,2.208q-1.53333,1.77866 -2.08533,5.21333l-1.77866,11.16266q-0.67467,4.47733 -5.39734,4.47733z" />
            <path id="path25381" d="m115.68617,92.35721q-6.992,0 -10.91733,-3.74133q-3.864,-3.80267 -3.864,-10.12q0,-5.58133 2.392,-9.50666q2.392,-3.92533 6.31733,-5.94933q3.98667,-2.08533 8.52533,-2.08533q6.992,0 10.91733,3.80266q3.92533,3.74133 3.92533,9.99733q0,5.64266 -2.45333,9.56799q-2.392,3.92534 -6.31733,6.01067q-3.92533,2.024 -8.52533,2.024zm0.24533,-6.93067q3.61867,0 5.64267,-3.12799q2.08533,-3.128 2.08533,-7.85067q0,-3.18933 -1.53333,-4.84533q-1.53334,-1.71733 -4.17067,-1.71733q-3.68,0 -5.70399,3.128q-2.024,3.128 -2.024,7.78933q0,3.18933 1.472,4.90666q1.53333,1.71733 4.23199,1.71733z" />
            <path id="path25383" d="m148.19275,92.35721q-5.09067,0 -8.15733,-3.496q-3.06667,-3.55733 -3.06667,-9.568q0,-5.21333 1.84,-9.32266q1.84,-4.17066 5.21333,-6.56266q3.43467,-2.45333 8.096,-2.45333q3.128,0 5.52,1.34933q2.392,1.288 3.61866,3.864l2.14667,-13.79999q0.736,-4.47734 5.33599,-4.47734q2.208,0 3.18934,1.41067q1.04266,1.34933 0.61333,3.92533l-5.45867,34.28532q-0.73599,4.72266 -5.27466,4.72266q-2.08533,0 -3.06666,-1.34933q-0.92,-1.34933 -0.61334,-3.68q-1.71733,2.392 -4.29333,3.80267q-2.576,1.34933 -5.64266,1.34933zm3.74133,-6.93067q2.45333,0 4.17066,-1.41066q1.71734,-1.472 2.63734,-3.92533q0.92,-2.51467 0.92,-5.64267q0,-3.18933 -1.53334,-4.84533q-1.472,-1.71733 -4.10933,-1.71733q-3.68,0 -5.704,3.128q-2.02399,3.128 -2.02399,7.78933q0,3.18933 1.47199,4.90666q1.53334,1.71733 4.17067,1.71733z" />
            <path id="path25385" d="m184.37931,92.35721q-4.78399,0 -7.42133,-3.06667q-2.63733,-3.128 -1.53333,-9.81333l2.26933,-14.10666q0.61334,-4.29333 5.02933,-4.29333q2.26934,0 3.37334,1.34934q1.10399,1.28799 0.736,3.74133l-2.08534,13.18666q-0.42933,2.88266 0.42934,4.35466q0.85866,1.41067 3.18933,1.41067q2.944,0 4.784,-1.96267q1.90133,-2.024 2.45333,-5.52l1.96266,-12.26666q0.61334,-4.29333 4.968,-4.29333q2.392,0 3.43467,1.34934q1.10399,1.34933 0.67466,3.74133l-3.37333,21.71199q-0.67467,4.35466 -5.02933,4.35466q-4.53867,0 -3.864,-4.784l0.0613,-0.49066q-1.71733,2.69866 -4.29333,4.04799q-2.576,1.34934 -5.76533,1.34934l0.00003,0z" />
            <path id="path25387" d="m212.22453,92.23454q-2.51467,0 -3.68,-1.59467q-1.16533,-1.65599 0.24534,-3.98666l21.95732,-35.51198q1.04266,-1.71733 2.26933,-2.45333q1.22667,-0.79734 3.128,-0.79734q3.80266,0 4.968,3.92533l10.36532,34.65332q0.85867,2.88266 -0.368,4.35466q-1.16533,1.41067 -3.37333,1.41067q-2.024,0 -3.128,-0.98133q-1.104,-1.04267 -1.656,-3.18933l-1.47199,-5.76533l-20.36266,0l-4.17067,7.17599q-1.65599,2.76 -4.72266,2.76zm22.81599,-33.67198l-9.568,16.31466l13.984,0l-4.29333,-16.31466l-0.12267,0z" />
            <path id="path25389" d="m258.83773,103.27453q-2.14666,0 -3.18933,-1.41066q-1.04267,-1.41067 -0.61333,-3.98667l5.09066,-32.13865q0.736,-4.66133 5.27467,-4.66133q2.08533,0 3.00533,1.288q0.98133,1.288 0.736,3.61867q3.55733,-5.02933 9.87466,-5.02933q5.09066,0 8.15733,3.49599q3.06666,3.496 3.06666,9.50667q0,5.21333 -1.84,9.38399q-1.84,4.17067 -5.27466,6.624q-3.37333,2.392 -8.03466,2.392q-3.06667,0 -5.52,-1.288q-2.392,-1.34933 -3.61867,-3.864l-1.83999,11.59199q-0.736,4.47733 -5.27467,4.47733zm14.35199,-17.84799q3.68,0 5.704,-3.12799q2.024,-3.128 2.024,-7.85067q0,-3.18933 -1.53333,-4.84533q-1.472,-1.71733 -4.10933,-1.71733q-3.68,0 -5.704,3.128q-2.024,3.128 -2.024,7.78933q0,3.18933 1.472,4.90666q1.53333,1.71733 4.17066,1.71733z" />
            <path id="path25391" d="m296.25097,103.27453q-2.14667,0 -3.18933,-1.41066q-1.04267,-1.41067 -0.61333,-3.98667l5.09066,-32.13865q0.736,-4.66133 5.27466,-4.66133q2.08534,0 3.00534,1.288q0.98133,1.288 0.73599,3.61867q3.55734,-5.02933 9.87467,-5.02933q5.09066,0 8.15733,3.49599q3.06666,3.496 3.06666,9.50667q0,5.21333 -1.84,9.38399q-1.84,4.17067 -5.27466,6.624q-3.37333,2.392 -8.03466,2.392q-3.06667,0 -5.52,-1.288q-2.392,-1.34933 -3.61867,-3.864l-1.84,11.59199q-0.736,4.47733 -5.27466,4.47733zm14.35199,-17.84799q3.68,0 5.704,-3.12799q2.024,-3.128 2.024,-7.85067q0,-3.18933 -1.53333,-4.84533q-1.472,-1.71733 -4.10933,-1.71733q-3.68,0 -5.704,3.128q-2.024,3.128 -2.024,7.78933q0,3.18933 1.472,4.90666q1.53333,1.71733 4.17066,1.71733z" />
            <path id="path25393" d="m343.6002,92.35721q-2.88266,0 -5.64266,-0.552q-2.69867,-0.49067 -4.66133,-1.41067q-1.71733,-0.736 -2.26933,-2.024q-0.49067,-1.34933 -0.0613,-2.576q0.49067,-1.22666 1.656,-1.77866q1.16534,-0.61333 2.82133,0.12267q3.98667,1.83999 8.096,1.83999q2.63733,0 3.92533,-0.92q1.34933,-0.91999 1.34933,-2.33066q0,-2.024 -2.94399,-2.576l-5.58133,-1.04267q-3.55734,-0.67466 -5.52,-2.69866q-1.96267,-2.024 -1.96267,-5.152q0,-2.76 1.59467,-5.09066q1.656,-2.392 4.84533,-3.80267q3.18933,-1.41066 7.85066,-1.41066q2.024,0 4.416,0.49066q2.392,0.49067 4.232,1.41067q1.656,0.79733 2.14666,2.08533q0.49067,1.22667 0,2.392q-0.49066,1.16533 -1.71733,1.656q-1.22667,0.49067 -2.88266,-0.184q-3.18934,-1.53333 -6.68533,-1.53333q-2.76,0 -4.17067,0.98133q-1.34933,0.98133 -1.34933,2.51466q0,0.85867 0.552,1.53334q0.61333,0.61333 1.96266,0.85866l5.52,1.04267q7.97333,1.472 7.97333,7.85066q0,4.968 -3.74133,7.66666q-3.68,2.63734 -9.752,2.63734l-0.00004,0z" />
        </g>
    </g>
</svg>